<svg width="60" height="60" viewBox="0 0 60 60" fill="none" xmlns="http://www.w3.org/2000/svg">
<path d="M59.985 39.9767L57.1255 19.689C57.0792 13.7979 53.693 8.33539 47.8159 4.68635C42.9483 1.66438 36.6213 0 30.0001 0C23.3786 0 17.0515 1.66438 12.1838 4.68635C6.3069 8.33539 2.92054 13.7979 2.87437 19.689L0.0148828 39.9767C0.00503905 40.0469 0 40.1178 0 40.1888C0 46.1543 3.76452 51.6786 10.3284 55.3452C15.7022 58.3469 22.6883 60 30.0001 60C37.3116 60 44.2978 58.3469 49.6716 55.3452C56.2354 51.6786 60 46.1543 60 40.1888C59.9999 40.1178 59.9949 40.0469 59.985 39.9767ZM13.5668 7.17049C18.0215 4.40481 23.8576 2.88163 30.0001 2.88163C36.1424 2.88163 41.9785 4.40481 46.4331 7.17049C51.4956 10.3136 54.3993 14.9211 54.3993 19.8113C54.3993 24.7015 51.4957 29.3089 46.4332 32.4521C41.9785 35.2178 36.1424 36.741 30.0001 36.741C23.8577 36.741 18.0215 35.2178 13.5669 32.4521C8.5044 29.309 5.60073 24.7015 5.60073 19.8113C5.60073 14.9211 8.50428 10.3137 13.5668 7.17049ZM48.3956 52.798C43.4079 55.584 36.875 57.1184 30.0001 57.1184C23.125 57.1184 16.592 55.584 11.6044 52.798C6.00374 49.6693 2.77453 45.1161 2.72917 40.2918L4.60757 26.9652C6.17225 30.0562 8.75283 32.8055 12.1841 34.9359C17.0517 37.9579 23.3787 39.6223 30.0001 39.6223C36.6213 39.6223 42.9485 37.9579 47.816 34.9359C51.2473 32.8055 53.8279 30.0561 55.3925 26.9652L57.2709 40.2918C57.2255 45.1162 53.9963 49.6694 48.3956 52.798Z" fill="#F1CDB3"/>
<path d="M30.0001 33.8587C39.3534 33.8587 47.6079 30.0368 50.5397 24.3491C51.29 22.8954 51.6707 21.3685 51.6707 19.8113C51.6707 15.9121 49.3194 12.305 45.0502 9.65454C41.0085 7.14552 35.6637 5.7638 30.0001 5.7638C24.3366 5.7638 18.9916 7.14565 14.9501 9.65466C10.6807 12.3051 8.32945 15.9121 8.32945 19.8114C8.32945 21.3687 8.70996 22.8955 9.46008 24.3485C12.3923 30.0368 20.6467 33.8587 30.0001 33.8587ZM30.0001 30.9772C22.1546 30.9772 15.0282 28.0005 12.2557 23.6561C15.0293 19.3141 22.1568 16.3404 30.0001 16.3404C37.8435 16.3404 44.9711 19.3141 47.7446 23.6562C44.9726 28.0005 37.8458 30.9772 30.0001 30.9772ZM11.0579 19.8114C11.058 16.9753 12.9313 14.2504 16.3328 12.1387C19.9617 9.88596 24.8154 8.64531 30 8.64531C35.1845 8.64531 40.0384 9.88596 43.6672 12.1388C47.0687 14.2504 48.9421 16.9752 48.9421 19.8114C48.9421 20.0641 48.9259 20.3162 48.896 20.5676C45.1332 16.2313 37.9658 13.4589 30 13.4589C22.0342 13.4589 14.8669 16.2314 11.1041 20.5676C11.0738 20.3168 11.0584 20.0642 11.0579 19.8114Z" fill="#F1CDB3"/>
<path d="M30 41.999C29.8155 41.999 29.6329 42.0385 29.4633 42.1152C29.2936 42.1919 29.1405 42.3041 29.0131 42.445C28.1243 43.4282 25.225 46.8214 25.225 49.2028C25.225 51.9833 27.367 54.2454 30 54.2454C32.633 54.2454 34.775 51.9833 34.775 49.2028C34.775 46.8214 31.8756 43.4282 30.987 42.445C30.8595 42.3041 30.7064 42.1919 30.5368 42.1152C30.3671 42.0385 30.1845 41.999 30 41.999ZM30 51.364C28.8716 51.364 27.9536 50.3945 27.9536 49.2029C27.9536 48.5632 28.9058 47.0176 30 45.6149C31.0943 47.0179 32.0465 48.5632 32.0465 49.2029C32.0465 50.3945 31.1284 51.364 30 51.364Z" fill="#F1CDB3"/>
<path d="M23.8843 23.125H23.4637C22.7102 23.125 22.0994 23.77 22.0994 24.5657C22.0994 25.3615 22.7102 26.0065 23.4637 26.0065H23.8843C24.6378 26.0065 25.2486 25.3615 25.2486 24.5657C25.2486 23.77 24.6378 23.125 23.8843 23.125Z" fill="#F1CDB3"/>
<path d="M40.074 23.125H30.342C29.5884 23.125 28.9777 23.77 28.9777 24.5657C28.9777 25.3615 29.5884 26.0065 30.342 26.0065H40.074C40.8275 26.0065 41.4383 25.3615 41.4383 24.5657C41.4383 23.77 40.8275 23.125 40.074 23.125Z" fill="#F1CDB3"/>
</svg>
