<svg width="60" height="60" viewBox="0 0 60 60" fill="none" xmlns="http://www.w3.org/2000/svg">
<path d="M57.297 7.15309C55.7379 5.71773 53.5393 4.4414 50.7617 3.35978C45.1984 1.19319 37.825 0 29.9997 0C22.1744 0 14.8011 1.19332 9.23787 3.35978C6.4603 4.4414 4.26163 5.71773 2.70257 7.15309C0.909373 8.80435 0 10.6262 0 12.5678V27.5761C0 29.5178 0.909373 31.3396 2.70269 32.9907C4.26175 34.4261 6.4603 35.7024 9.23799 36.7841C14.5225 38.8422 21.4409 40.021 28.8281 40.1341V45.5147H24.7869C24.3392 42.8078 22.2567 40.7545 19.7629 40.7545C16.9435 40.7545 14.6499 43.3792 14.6499 46.6051C14.6499 48.0078 15.0847 49.3359 15.8539 50.3773C15.075 51.4319 14.6484 52.7686 14.6499 54.1494C14.6499 57.3755 16.9435 60 19.7629 60C22.2567 60 24.3392 57.9466 24.7869 55.2399H35.2131C35.6608 57.9467 37.7433 60 40.2371 60C43.0565 60 45.3501 57.3753 45.3501 54.1494C45.3501 52.7467 44.9153 51.4186 44.1461 50.3773C44.925 49.3226 45.3516 47.9859 45.3501 46.6051C45.3501 43.379 43.0565 40.7545 40.2371 40.7545C37.7433 40.7545 35.6608 42.8079 35.2131 45.5147H31.1719V40.1341C38.5591 40.021 45.4775 38.8422 50.762 36.7841C53.5396 35.7024 55.7382 34.4261 57.2973 32.9907C59.0906 31.3396 60 29.5178 60 27.5761V12.5678C59.9996 10.6262 59.0903 8.80435 57.297 7.15309ZM36.3022 48.1967C36.4615 48.1967 36.6191 48.1595 36.7655 48.0874C36.9118 48.0153 37.0438 47.9098 37.1533 47.7773C37.2628 47.6449 37.3476 47.4883 37.4024 47.3171C37.4573 47.146 37.481 46.9638 37.4723 46.7817C37.4694 46.723 37.4679 46.6641 37.4677 46.6053C37.4677 44.858 38.71 43.4366 40.2369 43.4366C41.7639 43.4366 43.0062 44.8581 43.0062 46.6053C43.0062 47.676 42.5377 48.667 41.753 49.2563C41.5905 49.3784 41.4571 49.5447 41.3648 49.7404C41.2725 49.9361 41.2242 50.155 41.2242 50.3774C41.2242 50.5998 41.2725 50.8187 41.3648 51.0144C41.4571 51.2101 41.5905 51.3764 41.753 51.4984C42.5377 52.0878 43.0062 53.0788 43.0062 54.1495C43.0062 55.8968 41.7639 57.3182 40.2369 57.3182C38.71 57.3182 37.4677 55.8967 37.4677 54.1495C37.4677 54.0902 37.4696 54.0315 37.4723 53.973C37.4811 53.791 37.4574 53.6088 37.4026 53.4375C37.3478 53.2663 37.263 53.1097 37.1535 52.9772C37.044 52.8448 36.912 52.7393 36.7656 52.6672C36.6192 52.5951 36.4615 52.558 36.3022 52.5581H23.6975C23.5382 52.5581 23.3805 52.5953 23.2342 52.6674C23.0878 52.7395 22.9559 52.845 22.8463 52.9774C22.7368 53.1099 22.6521 53.2665 22.5972 53.4376C22.5424 53.6088 22.5186 53.791 22.5274 53.973C22.5301 54.0315 22.5319 54.0902 22.5319 54.1495C22.5319 55.8968 21.2896 57.3182 19.7627 57.3182C18.2357 57.3182 16.9934 55.8967 16.9934 54.1495C16.9934 53.0788 17.462 52.0878 18.2466 51.4984C18.4091 51.3764 18.5425 51.2101 18.6348 51.0144C18.7271 50.8187 18.7755 50.5998 18.7755 50.3774C18.7755 50.155 18.7271 49.9361 18.6348 49.7404C18.5425 49.5447 18.4091 49.3784 18.2466 49.2563C17.462 48.667 16.9934 47.676 16.9934 46.6053C16.9934 44.858 18.2357 43.4366 19.7627 43.4366C21.2896 43.4366 22.5319 44.8581 22.5319 46.6053C22.5319 46.6645 22.5301 46.7233 22.5274 46.7817C22.5185 46.9638 22.5422 47.146 22.597 47.3172C22.6519 47.4885 22.7366 47.6451 22.8462 47.7776C22.9557 47.91 23.0877 48.0155 23.2341 48.0876C23.3804 48.1596 23.5381 48.1968 23.6975 48.1967H36.3022ZM29.9998 37.462C28.4435 37.462 27.1772 36.0131 27.1772 34.2322C27.1772 32.4513 28.4435 31.0024 29.9998 31.0024C31.5562 31.0024 32.8224 32.4513 32.8224 34.2322C32.8224 36.0131 31.5562 37.462 29.9998 37.462ZM57.6559 27.5761C57.6559 31.8189 48.3045 36.5011 34.3965 37.3322C34.9005 36.4012 35.1671 35.3274 35.1661 34.2321C35.1661 33.8095 35.1264 33.3975 35.0525 32.9997C39.6006 32.6585 43.8255 31.8819 47.3495 30.7312C47.9718 30.5279 48.3325 29.786 48.1548 29.0738C47.9772 28.3616 47.329 27.949 46.7064 28.1523C43.0899 29.3331 38.6789 30.1033 33.9211 30.3897C32.9729 29.1244 31.5673 28.3204 29.9998 28.3204C28.4241 28.3204 27.0118 29.1328 26.0634 30.4098C22.8385 30.2337 19.7739 29.8398 16.9503 29.2319C16.3149 29.0947 15.7017 29.574 15.582 30.3017C15.4624 31.0296 15.881 31.7305 16.5171 31.8676C19.1492 32.4342 21.9775 32.8219 24.9418 33.0271C24.8698 33.4235 24.8335 33.8273 24.8336 34.2322C24.8327 35.3275 25.0993 36.4013 25.6033 37.3324C11.6952 36.5013 2.34375 31.819 2.34375 27.5761V17.6379L2.35968 17.6532C2.47205 17.7656 2.58637 17.8753 2.70257 17.9824C2.85923 18.1258 3.01885 18.2648 3.18128 18.3995L3.18374 18.4015C3.27117 18.4743 3.36035 18.5467 3.45117 18.6187L3.49171 18.6506C3.57714 18.7178 3.66374 18.7847 3.7521 18.8511C3.76991 18.8645 3.7882 18.8779 3.80624 18.8913C3.89542 18.9577 3.98566 19.024 4.07777 19.0895L4.11749 19.1174C5.50241 20.0974 7.21592 20.9883 9.23776 21.7757C14.801 23.9423 22.1743 25.1355 29.9997 25.1355C37.8251 25.1355 45.1984 23.9423 50.7617 21.7757C52.7837 20.9883 54.4974 20.0973 55.8824 19.1172L55.9216 19.0897C56.0139 19.024 56.1042 18.9577 56.1935 18.8912L56.2474 18.8512C56.3358 18.7849 56.4225 18.718 56.5079 18.6508L56.5485 18.6189C56.6393 18.5468 56.7285 18.4744 56.8159 18.4016L56.8184 18.3996C56.9808 18.265 57.1404 18.1259 57.2971 17.9826C57.4132 17.8754 57.5276 17.7657 57.64 17.6534L57.6559 17.6381V27.5761ZM7.52928 18.1419C8.5501 17.6079 9.94639 16.9947 11.8024 16.3992C16.8453 14.7812 23.3081 13.8902 29.9998 13.8902C36.6916 13.8902 43.1543 14.7813 48.1971 16.3992C50.0533 16.9945 51.4497 17.6078 52.4704 18.1419C47.6207 20.615 39.6821 22.4537 29.9998 22.4537C20.3176 22.4537 12.379 20.6149 7.52928 18.1419ZM57.6485 12.7643C57.6434 12.8426 57.6352 12.9205 57.624 12.9979L57.6225 13.0101C57.6098 13.0925 57.594 13.1741 57.575 13.2549C57.5616 13.3133 57.5465 13.3712 57.53 13.4285L57.5204 13.4622C57.4946 13.5472 57.4658 13.6311 57.4342 13.7135C57.4218 13.7461 57.4083 13.7785 57.3948 13.8111C57.3679 13.876 57.3395 13.9406 57.3088 14.0046L57.3006 14.0218C56.813 15.0288 55.8925 15.9097 54.9784 16.5976C53.7646 15.7975 51.8179 14.7755 48.8301 13.8169C43.587 12.1348 36.8997 11.2086 29.9999 11.2086C23.1002 11.2086 16.413 12.1349 11.1697 13.817C8.18202 14.7755 6.23542 15.7975 5.02147 16.5978C4.10753 15.91 3.18703 15.029 2.69929 14.0219L2.69109 14.0047C2.66039 13.9406 2.63203 13.876 2.60496 13.811C2.5916 13.7785 2.57812 13.7462 2.56582 13.7138C2.55527 13.6864 2.54531 13.6589 2.53546 13.6314C2.51542 13.5751 2.49632 13.5188 2.47945 13.4625C2.47605 13.4513 2.473 13.4399 2.46972 13.4288C2.44857 13.3556 2.42993 13.2816 2.41382 13.2067C2.39958 13.1418 2.38738 13.0763 2.37726 13.0104L2.37574 12.9982C2.36456 12.9208 2.35638 12.8429 2.35125 12.7646C2.34653 12.6991 2.34403 12.6335 2.34375 12.5678C2.34375 7.89183 13.7017 2.68192 29.9998 2.68192C46.298 2.68192 57.6559 7.89183 57.6559 12.5678C57.6559 12.6332 57.6529 12.6988 57.6485 12.7643Z" fill="#F1CDB3"/>
<path d="M48.1765 8.74605C48.1309 8.48631 48.0197 8.2476 47.8567 8.05947C47.8022 7.99749 47.7425 7.9418 47.6785 7.89319C47.5506 7.7959 47.4073 7.72804 47.2567 7.69339C47.1055 7.65853 46.9497 7.65853 46.7985 7.69339C46.7235 7.71082 46.6509 7.7363 46.5794 7.76982C46.5091 7.80335 46.4411 7.84492 46.3778 7.89319C46.3134 7.94147 46.2536 7.99779 46.1985 8.05947C46.1446 8.12116 46.0966 8.19089 46.0533 8.2633C45.9683 8.40972 45.909 8.57368 45.8787 8.74605C45.8635 8.83321 45.8564 8.92037 45.8564 9.00754C45.8564 9.09604 45.8636 9.1832 45.8787 9.27036C45.909 9.44273 45.9683 9.60669 46.0533 9.75311C46.0966 9.82552 46.1446 9.89391 46.1985 9.95694C46.2537 10.0186 46.3135 10.0736 46.3778 10.1232C46.4411 10.1715 46.5091 10.2131 46.5794 10.2466C46.6509 10.2801 46.7236 10.3056 46.7985 10.323C46.8747 10.3405 46.9521 10.3498 47.0282 10.3498C47.1044 10.3498 47.1818 10.3405 47.2567 10.323C47.3317 10.3056 47.4057 10.2801 47.4759 10.2466C47.5462 10.2131 47.6141 10.1715 47.6785 10.1232C47.7418 10.0736 47.8028 10.0186 47.8567 9.95694C47.9106 9.89391 47.9598 9.82552 48.002 9.75311C48.087 9.60668 48.1463 9.44272 48.1765 9.27036C48.1919 9.1832 48.2 9.09604 48.2 9.00754C48.2 8.92024 48.1919 8.83307 48.1765 8.74605Z" fill="#F1CDB3"/>
<path d="M43.4829 6.70618C39.4455 5.83696 34.85 5.37741 30.1935 5.37741C23.7488 5.37741 17.5185 6.2528 12.6504 7.84251C12.0282 8.0458 11.6675 8.78776 11.8451 9.49994C11.9918 10.0893 12.4611 10.4733 12.9713 10.4733C13.0777 10.4733 13.186 10.4567 13.2934 10.4216C17.9582 8.89839 23.96 8.05948 30.1934 8.05948C34.707 8.05948 39.1525 8.50293 43.0495 9.34198C43.6858 9.47862 44.2981 8.9999 44.4179 8.27202C44.5376 7.54415 44.1189 6.84336 43.4829 6.70618Z" fill="#F1CDB3"/>
<path d="M14.121 29.3043C14.1058 29.2185 14.0835 29.134 14.0542 29.0522C14.0249 28.9718 13.9886 28.894 13.9464 28.8216C13.9038 28.7481 13.8547 28.6798 13.7999 28.6177C13.746 28.5561 13.6862 28.4997 13.6218 28.4501C13.5585 28.4019 13.4905 28.3616 13.4201 28.3281C13.3495 28.2943 13.2761 28.2687 13.201 28.2517C13.0498 28.2168 12.8941 28.2168 12.7429 28.2517C12.6678 28.2678 12.5939 28.2946 12.5237 28.3281C12.4523 28.3616 12.3843 28.4019 12.321 28.4501C12.2566 28.4997 12.1968 28.5561 12.1429 28.6177C12.089 28.6794 12.0398 28.7478 11.9976 28.8216C11.9554 28.894 11.9191 28.9718 11.8898 29.0522C11.8605 29.134 11.8382 29.2185 11.823 29.3043C11.8077 29.3901 11.7995 29.4787 11.7995 29.5658C11.8003 29.7416 11.8309 29.9156 11.8898 30.0781C11.9191 30.1599 11.9554 30.2376 11.9976 30.3101C12.0398 30.3838 12.089 30.4521 12.1429 30.5139C12.1968 30.5756 12.2566 30.6319 12.321 30.6802C12.3843 30.7298 12.4523 30.77 12.5237 30.8035C12.5941 30.8371 12.6678 30.8639 12.7429 30.88C12.8179 30.8974 12.8952 30.9068 12.9713 30.9068C13.0475 30.9068 13.1249 30.8974 13.201 30.88C13.2761 30.8629 13.3495 30.8373 13.4201 30.8035C13.4909 30.7705 13.5585 30.7291 13.6218 30.6802C13.686 30.6319 13.7457 30.5761 13.7999 30.5139C13.9092 30.3895 13.9957 30.2413 14.0542 30.0781C14.1134 29.9158 14.1436 29.7416 14.1432 29.5658C14.1432 29.4785 14.1361 29.3901 14.121 29.3043Z" fill="#F1CDB3"/>
</svg>
