<svg width="61" height="60" viewBox="0 0 61 60" fill="none" xmlns="http://www.w3.org/2000/svg">
<path d="M59.6328 19.9663L30.8819 0.226256C30.6678 0.0792462 30.4094 0 30.1441 0C29.8788 0 29.6204 0.0792462 29.4063 0.226256L0.655585 19.9663C0.0989631 20.3485 -0.0220797 21.0818 0.385393 21.6041L4.14322 26.4211C4.24006 26.5453 4.36206 26.6504 4.50223 26.7304C4.6424 26.8104 4.798 26.8637 4.96013 26.8872C5.12226 26.9107 5.28775 26.9041 5.44714 26.8676C5.60652 26.8311 5.75668 26.7655 5.88903 26.6745L7.02301 25.8959V58.828C7.02301 59.4751 7.58238 59.9998 8.27216 59.9998H52.0821C52.7719 59.9998 53.3313 59.4751 53.3313 58.828V25.9413L54.3993 26.6745C54.5317 26.7655 54.6818 26.831 54.8412 26.8675C55.0006 26.904 55.166 26.9106 55.3281 26.8871C55.4903 26.8636 55.6458 26.8103 55.786 26.7303C55.9262 26.6504 56.0482 26.5453 56.145 26.4211L59.9028 21.6041C60.3104 21.0816 60.1894 20.3485 59.6328 19.9663ZM50.833 53.0856H21.2791C20.5893 53.0856 20.0299 53.6103 20.0299 54.2574C20.0299 54.9045 20.5893 55.4293 21.2791 55.4293H50.833V57.6562H9.52119V25.105H38.7741C39.4638 25.105 40.0232 24.5803 40.0232 23.9332C40.0232 23.2861 39.4638 22.7613 38.7741 22.7613H11.5893L30.1442 10.0213L50.833 24.226V53.0856ZM54.8668 24.0911L30.8819 7.62348C30.6679 7.47638 30.4095 7.39712 30.1442 7.39719C29.8789 7.39709 29.6204 7.47636 29.4064 7.62348L5.42147 24.0911L3.13915 21.1654L30.1443 2.62391L57.1495 21.1654L54.8668 24.0911Z" fill="#F1CDB3"/>
<path d="M44.4994 23.7046C44.4832 23.6295 44.4582 23.5557 44.427 23.4842C44.3958 23.4139 44.357 23.3459 44.3121 23.2826C44.2671 23.2184 44.2152 23.1587 44.1572 23.1045C43.9224 22.8855 43.6051 22.7621 43.274 22.761C42.9455 22.761 42.6232 22.8864 42.391 23.1045C42.3335 23.1584 42.2811 23.2182 42.2361 23.2826C42.1911 23.3459 42.1524 23.4139 42.1212 23.4842C42.09 23.5557 42.065 23.6295 42.05 23.7046C42.0337 23.7796 42.025 23.8569 42.025 23.933C42.025 24.0092 42.0337 24.0866 42.05 24.1615C42.065 24.2364 42.09 24.3103 42.1212 24.3818C42.1524 24.4523 42.1911 24.5202 42.2361 24.5835C42.2811 24.648 42.3335 24.7076 42.391 24.7616C42.4485 24.8155 42.5122 24.8648 42.5809 24.9069C42.6483 24.949 42.7208 24.9855 42.797 25.0148C42.8719 25.0441 42.9505 25.0675 43.0306 25.0816C43.1105 25.0968 43.193 25.1049 43.274 25.1049C43.3552 25.1049 43.4378 25.0968 43.5176 25.0816C43.5978 25.067 43.676 25.0446 43.7512 25.0148C43.8274 24.9855 43.8999 24.949 43.9673 24.9069C44.036 24.8648 44.0996 24.8155 44.1572 24.7616C44.2146 24.7077 44.2671 24.648 44.3121 24.5835C44.357 24.5202 44.3958 24.4523 44.427 24.3818C44.4582 24.3105 44.4832 24.2365 44.4994 24.1615C44.5157 24.0865 44.5231 24.0092 44.5231 23.933C44.5231 23.8569 44.5156 23.7795 44.4994 23.7046Z" fill="#F1CDB3"/>
<path d="M18.0034 54.0281C17.9874 53.9531 17.9636 53.8797 17.9323 53.809C17.9011 53.7386 17.8622 53.6695 17.8173 53.6063C17.772 53.5423 17.7202 53.4826 17.6625 53.4281C17.605 53.3742 17.5412 53.3262 17.4726 53.2828C17.3362 53.1978 17.1835 53.1385 17.0229 53.1082C16.8618 53.0777 16.6957 53.0777 16.5345 53.1082C16.4558 53.1234 16.3771 53.1457 16.3009 53.175C16.226 53.2043 16.1535 53.2406 16.0861 53.2828C16.0174 53.325 15.9535 53.3742 15.8962 53.4281C15.8375 53.482 15.7863 53.543 15.7401 53.6063C15.6495 53.7342 15.5863 53.8775 15.5541 54.0281C15.5377 54.1043 15.5303 54.1805 15.5303 54.2566C15.5298 54.4106 15.562 54.5632 15.6251 54.7054C15.6564 54.7758 15.6952 54.8438 15.7401 54.9081C15.7863 54.9714 15.8375 55.0311 15.8962 55.0862C15.9537 55.1403 16.0175 55.1895 16.0861 55.2315C16.1535 55.2737 16.226 55.3101 16.3009 55.3394C16.3771 55.3686 16.4558 55.3909 16.5345 55.4061C16.6157 55.4214 16.6982 55.4296 16.7794 55.4296C17.0261 55.4286 17.2672 55.3598 17.4726 55.2315C17.5411 55.1894 17.6048 55.1407 17.6625 55.0862C17.72 55.0311 17.7724 54.9715 17.8173 54.9081C17.9542 54.7151 18.0276 54.4885 18.0284 54.2566C18.0284 54.1805 18.0196 54.1042 18.0034 54.0281Z" fill="#F1CDB3"/>
<path d="M45.6605 30.5741C45.6605 29.5803 45.2451 28.6476 44.4906 27.9481C43.7433 27.2554 42.7215 26.8676 41.6796 26.876C41.3511 26.8793 41.0243 26.9208 40.7068 26.9997C38.3936 27.5554 36.1336 28.2902 33.95 29.1966C32.7029 28.9199 31.4258 28.7806 30.1443 28.7813C29.4227 28.7813 28.6947 28.8257 27.98 28.9133C27.4282 28.9816 26.8804 29.0761 26.3388 29.1966C24.1555 28.2903 21.8959 27.5556 19.5831 26.9999C19.572 26.997 19.5608 26.9942 19.5496 26.9915C18.3202 26.6978 17.0523 26.9619 16.0713 27.7171C15.0904 28.472 14.5667 29.5867 14.634 30.7745C14.7028 31.9938 14.8306 33.2096 15.0171 34.418C15.1846 35.5012 15.3986 36.5776 15.6585 37.6446C15.2718 38.5729 15.0024 39.5405 14.8557 40.5276C14.7947 40.9397 14.7639 41.3553 14.7635 41.7714C14.7635 47.0173 19.6397 51.2853 25.6336 51.2853H34.6554C37.9408 51.2853 41.0144 50.0035 43.0884 47.7686C44.989 45.7205 45.8217 43.1486 45.4331 40.5269C45.3495 39.9648 45.2262 39.4085 45.0641 38.8617C44.9412 38.4498 44.7966 38.0438 44.6309 37.6453C45.1807 35.3878 45.5233 33.0901 45.6548 30.7777C45.6587 30.7091 45.6605 30.6416 45.6605 30.5741ZM43.1599 30.647L43.1596 30.651C43.0291 32.949 42.6773 35.2312 42.1084 37.4697C42.0465 37.7133 42.0694 37.9692 42.1738 38.1997C42.3642 38.6199 42.5255 39.0511 42.6568 39.4907C42.7891 39.937 42.8897 40.391 42.958 40.8497C43.2455 42.7898 42.6225 44.7004 41.2034 46.2296C39.6041 47.9529 37.2174 48.9414 34.6548 48.9414H25.633C21.0169 48.9414 17.2612 45.7249 17.2612 41.7714C17.2612 41.4679 17.2843 41.1574 17.3297 40.8496C17.4654 39.938 17.7292 39.0473 18.114 38.2007C18.2188 37.9699 18.2418 37.7138 18.1798 37.4698C17.8955 36.3508 17.665 35.2203 17.4889 34.0819C17.3133 32.9439 17.1929 31.799 17.1282 30.6508C17.1034 30.2148 17.2956 29.806 17.6554 29.5289C17.919 29.326 18.2393 29.2196 18.5689 29.2196C18.6812 29.2196 18.7948 29.2319 18.9076 29.2571L18.9324 29.2633C21.2554 29.8194 23.5214 30.5674 25.7037 31.4985C25.9673 31.6112 26.2644 31.6346 26.5443 31.5646C27.1227 31.4199 27.7106 31.3106 28.3041 31.2372C28.9108 31.1628 29.5299 31.125 30.1436 31.125C31.367 31.125 32.5778 31.2729 33.7428 31.5646C34.0223 31.6342 34.3191 31.6114 34.5824 31.499C36.7726 30.5646 39.0468 29.8145 41.3783 29.2573C41.485 29.2333 41.5943 29.2207 41.704 29.2196H41.7202C42.0936 29.2196 42.4623 29.3632 42.7339 29.6149C42.8698 29.74 42.9776 29.8892 43.0511 30.0539C43.1246 30.2186 43.1622 30.3955 43.1617 30.574C43.1619 30.5983 43.1612 30.6224 43.1599 30.647Z" fill="#F1CDB3"/>
<path d="M32.487 43.5662C31.884 43.5662 31.3934 43.106 31.3934 42.5403C31.3934 41.8932 30.8341 41.3684 30.1442 41.3684C29.4543 41.3684 28.895 41.8932 28.895 42.5403V42.5831C28.895 43.1487 28.4045 43.609 27.8015 43.609C27.1116 43.609 26.5524 44.1338 26.5524 44.7809C26.5524 45.428 27.1116 45.9528 27.8015 45.9528C28.7084 45.9528 29.5376 45.6356 30.1704 45.1135C30.8174 45.6284 31.6385 45.9107 32.487 45.9099C33.1768 45.9099 33.7361 45.3851 33.7361 44.738C33.7361 44.0908 33.1768 43.5662 32.487 43.5662Z" fill="#F1CDB3"/>
<path d="M25.7777 38.1664L23.9222 37.3688C23.759 37.2985 23.5815 37.2621 23.4019 37.2621C23.2223 37.2621 23.0449 37.2985 22.8817 37.3688L21.026 38.1664C20.3988 38.4359 20.1233 39.1314 20.4107 39.7198C20.479 39.8597 20.576 39.9856 20.6962 40.0904C20.8164 40.1951 20.9574 40.2766 21.1112 40.3302C21.265 40.3838 21.4285 40.4085 21.5924 40.4028C21.7563 40.3971 21.9175 40.3612 22.0666 40.2971L23.4018 39.7232L24.737 40.2971C25.3638 40.5669 26.1056 40.3082 26.3929 39.7198C26.6805 39.1314 26.4048 38.4358 25.7777 38.1664Z" fill="#F1CDB3"/>
<path d="M39.2623 38.1662L37.4068 37.3686C37.2436 37.2983 37.0661 37.262 36.8865 37.262C36.707 37.262 36.5295 37.2983 36.3663 37.3686L34.5108 38.1662C33.8836 38.4357 33.608 39.1312 33.8954 39.7196C34.1829 40.3082 34.9242 40.5669 35.5513 40.2969L36.8865 39.723L38.2218 40.2969C38.3847 40.3672 38.5619 40.4036 38.7413 40.4036C39.2147 40.4036 39.6675 40.1498 39.8776 39.7196C40.1651 39.1312 39.8896 38.4357 39.2623 38.1662Z" fill="#F1CDB3"/>
</svg>
