<svg width="61" height="60" viewBox="0 0 61 60" fill="none" xmlns="http://www.w3.org/2000/svg">
<path d="M56.0476 12.7115H49.0191V12.5095C49.0191 8.87665 46.0614 5.92118 42.4257 5.92118C38.79 5.92118 35.8322 8.87665 35.8322 12.5095V12.7115H27.578C24.8601 12.7115 22.6491 14.9209 22.6491 17.6365V23.2009H15.2571C13.4936 23.2009 11.9262 24.2562 11.2639 25.8893C11.2543 25.9133 11.2454 25.9375 11.2372 25.962L6.97278 38.8689C6.93408 38.8919 6.8847 38.9191 6.82325 38.9498C6.57943 39.0714 6.12333 39.2568 5.33849 39.4484C4.09306 39.7499 2.98548 40.4616 2.19418 41.4688C1.40289 42.4759 0.973962 43.72 0.976513 45.0004V51.0987C0.976513 53.1406 2.63895 54.8018 4.68243 54.8018L9.91075 54.802C10.4628 57.7562 13.0609 59.9999 16.1751 59.9999C19.2892 59.9999 21.8873 57.7561 22.4395 54.8021L40.8785 54.8024C41.4307 57.7564 44.0287 59.9999 47.1428 59.9999C50.2568 59.9999 52.8548 57.7565 53.407 54.8026L56.7273 54.8027C59.2689 54.8027 60.9765 53.0963 60.9765 50.5568V20.08C60.9765 13.4295 57.5295 12.7115 56.0476 12.7115ZM38.1778 12.5095C38.1778 10.169 40.0834 8.26493 42.4257 8.26493C44.768 8.26493 46.6736 10.169 46.6736 12.5095V12.7115H38.1778V12.5095ZM13.4511 26.7379C13.6009 26.3833 13.8523 26.0809 14.1736 25.8686C14.4949 25.6563 14.8718 25.5436 15.2569 25.5447H22.649V38.8266H9.45688L13.4511 26.7379ZM16.1751 57.6562C13.9537 57.6562 12.1465 55.8504 12.1465 53.6307C12.1465 53.6033 12.148 53.5762 12.1486 53.5488C12.1494 53.5069 12.1496 53.465 12.1517 53.4234C12.1521 53.4168 12.1529 53.4104 12.1533 53.4038C12.2715 51.2894 14.0302 49.6052 16.1751 49.6052C18.1161 49.6052 19.7409 50.9841 20.1201 52.8129L20.1217 52.82C20.1345 52.882 20.1455 52.9445 20.1554 53.0076L20.1572 53.018C20.1643 53.0638 20.1694 53.1101 20.1748 53.1564C20.1773 53.1775 20.1807 53.1983 20.1828 53.2194C20.1864 53.2554 20.1884 53.2921 20.1911 53.3285C20.1935 53.3602 20.1968 53.3916 20.1984 53.4235C20.2 53.4563 20.2 53.4896 20.2009 53.5226C20.2018 53.5586 20.2036 53.5944 20.2036 53.6306C20.2038 55.8504 18.3965 57.6562 16.1751 57.6562ZM47.1428 57.6562C44.9214 57.6562 43.1141 55.8504 43.1141 53.6307C43.1141 53.5783 43.1161 53.5263 43.1181 53.4743C43.1187 53.4576 43.1186 53.4405 43.1194 53.4238C43.1214 53.3852 43.1251 53.3471 43.1282 53.3088C43.1305 53.2791 43.1319 53.2491 43.135 53.2196C43.1363 53.207 43.1384 53.1947 43.1397 53.1823C43.1533 53.06 43.1717 52.939 43.1961 52.8203C43.1968 52.8168 43.1977 52.8134 43.1986 52.8099C43.5789 50.9826 45.2027 49.6053 47.1428 49.6053C47.6981 49.6053 48.2276 49.7181 48.7094 49.9222C50.1549 50.5341 51.1713 51.966 51.1713 53.6308C51.1713 55.8504 49.3642 57.6562 47.1428 57.6562ZM56.7273 52.4588L53.4089 52.4587C53.405 52.4379 53.4 52.4175 53.3959 52.3968C53.3683 52.2591 53.3365 52.1222 53.3006 51.9864C53.2846 51.927 53.2677 51.8679 53.25 51.809C53.239 51.7724 53.2282 51.7358 53.2167 51.6994C53.197 51.6382 53.1763 51.5772 53.1547 51.5166C53.1432 51.4842 53.1323 51.4513 53.1202 51.4191C53.094 51.3492 53.0666 51.2799 53.0378 51.211C53.0288 51.1892 53.0206 51.1669 53.0113 51.1452C52.9726 51.0542 52.9318 50.9641 52.8889 50.875C52.8835 50.8639 52.8776 50.8532 52.8722 50.8422C52.8348 50.7656 52.7959 50.6897 52.7554 50.6146C52.7405 50.5871 52.7247 50.5602 52.7095 50.5329C52.6773 50.4749 52.6442 50.4175 52.6101 50.3606C52.5916 50.3297 52.5724 50.2995 52.5532 50.2689C52.501 50.1846 52.4465 50.1016 52.3899 50.0201C52.3342 49.9395 52.2767 49.8602 52.2175 49.7821C52.1805 49.7337 52.1428 49.6858 52.1044 49.6385C52.0815 49.6102 52.059 49.5819 52.0357 49.554C51.9939 49.5043 51.9514 49.4553 51.9082 49.4069C51.8869 49.383 51.8661 49.3585 51.8444 49.3349C51.7906 49.2763 51.7357 49.2188 51.6796 49.1623C51.6676 49.1501 51.6561 49.1374 51.6439 49.1253C51.5747 49.0563 51.504 48.989 51.4318 48.9233C51.4165 48.9092 51.4004 48.896 51.3848 48.882C51.3283 48.8315 51.271 48.7815 51.2126 48.7329C51.1871 48.7116 51.1607 48.6912 51.1347 48.6704C51.0853 48.6304 51.0353 48.5911 50.9847 48.5525C50.955 48.53 50.9248 48.5081 50.8947 48.4861C50.7672 48.3927 50.6362 48.3043 50.5019 48.221C50.4691 48.2004 50.4361 48.1802 50.4028 48.1602C50.3509 48.1292 50.2983 48.0993 50.2454 48.0698C50.2129 48.0516 50.1806 48.0331 50.1477 48.0155C50.0903 47.9847 50.032 47.9553 49.9734 47.9262C49.9444 47.9117 49.9156 47.8966 49.8863 47.8826C49.8097 47.8461 49.7323 47.8111 49.6542 47.7776C49.6422 47.7725 49.6305 47.7667 49.6184 47.7616C49.5277 47.7233 49.436 47.6871 49.3435 47.6531C49.3172 47.6433 49.2903 47.6348 49.2637 47.6254C49.1973 47.602 49.1308 47.5789 49.0635 47.5575C49.0282 47.5464 48.9925 47.5363 48.957 47.5258C48.8973 47.5081 48.8375 47.4906 48.7771 47.4746C48.7384 47.4643 48.6994 47.4549 48.6604 47.4453C48.5618 47.421 48.4627 47.3992 48.3631 47.3798C48.304 47.3684 48.2449 47.3578 48.1855 47.348C48.1448 47.3413 48.1041 47.3345 48.0632 47.3287C48.0015 47.3199 47.9397 47.3121 47.8778 47.3051C47.8385 47.3006 47.7993 47.2956 47.7598 47.2919C47.6912 47.2856 47.6225 47.2803 47.5537 47.2762C47.5201 47.2741 47.4868 47.271 47.453 47.2694C47.3496 47.2643 47.2462 47.2617 47.1427 47.2615C47.0386 47.2615 46.9352 47.2645 46.8324 47.2694C46.7986 47.271 46.7652 47.2741 46.7315 47.2762C46.6626 47.2806 46.5939 47.2853 46.5257 47.2919C46.486 47.2958 46.4469 47.3007 46.4074 47.3052C46.3455 47.3124 46.2837 47.3199 46.2224 47.3288C46.1813 47.3348 46.1404 47.3415 46.0996 47.3483C45.9994 47.3649 45.8996 47.3838 45.8003 47.4049C45.7419 47.4175 45.6837 47.431 45.6257 47.4453C45.5863 47.4549 45.547 47.4645 45.5079 47.4748C45.4481 47.4906 45.3889 47.5079 45.3298 47.5254C45.2936 47.5362 45.2573 47.5464 45.2214 47.5578C45.1556 47.5788 45.0902 47.601 45.0252 47.6242C44.9973 47.6341 44.969 47.6431 44.9412 47.6534C44.849 47.6874 44.7578 47.7233 44.6677 47.7613C44.6528 47.7677 44.6383 47.7747 44.6234 47.7812C44.5482 47.8136 44.4736 47.847 44.4 47.8822C44.3689 47.897 44.3385 47.913 44.3077 47.9283C44.2511 47.9566 44.1946 47.9849 44.139 48.0147C44.1047 48.0331 44.0708 48.0524 44.0368 48.0715C43.9856 48.1001 43.9347 48.1293 43.8843 48.1592C43.7657 48.2304 43.6493 48.3051 43.5353 48.3833C43.4879 48.416 43.4409 48.4494 43.3944 48.4835C43.3624 48.5068 43.3303 48.53 43.2987 48.5539C43.2505 48.5904 43.2033 48.6281 43.1561 48.6659C43.1277 48.6888 43.099 48.711 43.071 48.7343C43.0168 48.7795 42.9638 48.826 42.9111 48.8727C42.8915 48.8901 42.8715 48.9069 42.8521 48.9244C42.7809 48.9892 42.7113 49.0556 42.6431 49.1235C42.6259 49.1406 42.6096 49.1587 42.5925 49.176C42.5419 49.2276 42.4917 49.2795 42.4428 49.3328C42.4184 49.3595 42.3948 49.387 42.3709 49.414C42.3307 49.4594 42.2907 49.5049 42.2518 49.5514C42.2264 49.5817 42.2018 49.6126 42.1771 49.6434C42.1409 49.6881 42.1053 49.7331 42.0703 49.7788C41.9866 49.889 41.9063 50.0018 41.8296 50.1169C41.7975 50.165 41.7666 50.2137 41.736 50.2627C41.715 50.2962 41.6937 50.3296 41.6735 50.3635C41.6418 50.4161 41.6115 50.4695 41.5815 50.5232C41.5639 50.5545 41.5457 50.5854 41.5286 50.6172C41.4925 50.684 41.4581 50.752 41.4245 50.8202C41.415 50.8394 41.4048 50.858 41.3955 50.8774C41.3533 50.965 41.3132 51.0536 41.2751 51.143C41.2634 51.1703 41.253 51.1982 41.2418 51.2258C41.2158 51.2889 41.1903 51.3523 41.1663 51.4165C41.153 51.4524 41.1409 51.4887 41.1281 51.5247C41.1079 51.5817 41.0885 51.6389 41.0698 51.6964C41.0573 51.7355 41.0457 51.7751 41.0338 51.8146C41.005 51.911 40.9785 52.008 40.9544 52.1056C40.9405 52.162 40.9274 52.2187 40.915 52.2758C40.906 52.3171 40.8971 52.3585 40.8889 52.4001C40.885 52.4198 40.8802 52.4391 40.8765 52.4588L22.4409 52.4585C22.437 52.4382 22.4322 52.4181 22.4282 52.3979C22.4204 52.3578 22.4117 52.3181 22.4031 52.2783C22.3691 52.1215 22.329 51.9659 22.2829 51.8122C22.2715 51.774 22.2602 51.7358 22.2481 51.6978C22.2291 51.6389 22.2092 51.5804 22.1885 51.5221C22.1762 51.4872 22.1644 51.452 22.1515 51.4174C22.127 51.3522 22.1014 51.2875 22.0746 51.2232C22.0638 51.1967 22.0538 51.1697 22.0425 51.1435C22.0043 51.0538 21.964 50.965 21.9217 50.8771C21.9131 50.8594 21.9038 50.8423 21.8951 50.8247C21.8608 50.7548 21.8253 50.6855 21.7884 50.6169C21.7717 50.5859 21.7539 50.5556 21.7366 50.525C21.7061 50.4707 21.6755 50.4166 21.6435 50.3634C21.6233 50.3297 21.6024 50.2968 21.5816 50.2636C21.5509 50.2143 21.5195 50.1654 21.4874 50.1169C21.4107 50.0019 21.3304 49.8893 21.2468 49.7792C21.2119 49.7335 21.1763 49.6885 21.1402 49.6438C21.1153 49.613 21.0905 49.582 21.0652 49.5516C21.0262 49.5055 20.9867 49.4598 20.9465 49.4147C20.9224 49.3876 20.8987 49.3599 20.8742 49.3331C20.8258 49.2803 20.7761 49.2289 20.726 49.1778C20.7084 49.1599 20.6917 49.1413 20.6738 49.1238C20.6058 49.0559 20.5363 48.9897 20.4652 48.925C20.4455 48.907 20.4249 48.89 20.4049 48.8722C20.3528 48.8255 20.3 48.7798 20.2464 48.7349C20.218 48.7114 20.1889 48.6888 20.1602 48.6657C20.1135 48.6282 20.0666 48.5908 20.0187 48.5546C19.9869 48.5304 19.9546 48.5071 19.9223 48.4836C19.876 48.4497 19.8293 48.4165 19.7822 48.3838C19.7015 48.3285 19.6195 48.2749 19.5365 48.2232C19.502 48.2016 19.4673 48.1803 19.4324 48.1594C19.3824 48.1296 19.3318 48.1006 19.2809 48.0722C19.2467 48.053 19.2125 48.0336 19.1778 48.0151C19.1225 47.9856 19.0667 47.957 19.0105 47.9293C18.9793 47.9137 18.9484 47.8975 18.9169 47.8824C18.8441 47.8478 18.7706 47.8146 18.6966 47.7827C18.6808 47.7758 18.6653 47.7683 18.6494 47.7615C18.5592 47.7234 18.4681 47.6875 18.3762 47.6536C18.348 47.6432 18.3192 47.6341 18.2907 47.624C18.2262 47.601 18.1613 47.579 18.096 47.558C18.0599 47.5465 18.0232 47.5362 17.9867 47.5254C17.9279 47.5078 17.8688 47.491 17.8095 47.4751C17.7702 47.4646 17.7307 47.455 17.6912 47.4454C17.5347 47.4067 17.3767 47.3743 17.2176 47.3484C17.1768 47.3417 17.136 47.3349 17.0948 47.3289C17.0332 47.3202 16.9715 47.3123 16.9096 47.3054C16.8704 47.3008 16.8312 47.2959 16.7917 47.292C16.7231 47.2857 16.6544 47.2805 16.5856 47.2763C16.5519 47.2742 16.5186 47.2711 16.4849 47.2695C16.3815 47.2644 16.278 47.2618 16.1745 47.2617C16.0705 47.2617 15.9672 47.2646 15.8642 47.2695C15.8304 47.2711 15.797 47.2742 15.7634 47.2763C15.6945 47.2808 15.6258 47.2854 15.5575 47.292C15.5179 47.2959 15.4786 47.3008 15.4392 47.3054C15.3775 47.3123 15.3159 47.3202 15.2544 47.3289C15.2131 47.3349 15.1721 47.3417 15.1312 47.3484C15.031 47.3648 14.9313 47.3837 14.832 47.405C14.7739 47.4175 14.716 47.431 14.6583 47.4452C14.6186 47.4549 14.5787 47.4646 14.5393 47.4751C14.4804 47.4909 14.4218 47.5076 14.3634 47.5251C14.3266 47.536 14.2895 47.5465 14.2529 47.558C14.1884 47.5784 14.1246 47.6007 14.0609 47.6231C14.0315 47.6334 14.0018 47.6429 13.9726 47.6536C13.8809 47.6875 13.7901 47.7231 13.7005 47.761C13.6823 47.7687 13.6646 47.7773 13.6466 47.7851C13.5749 47.8162 13.5036 47.8481 13.4332 47.8817C13.4004 47.8974 13.3683 47.9143 13.3357 47.9306C13.2808 47.9577 13.2264 47.9855 13.1724 48.0142C13.1368 48.0333 13.1017 48.0534 13.0664 48.0732C13.0167 48.1011 12.9671 48.1292 12.9182 48.1585C12.8345 48.2086 12.752 48.2604 12.6706 48.3141C12.6354 48.3373 12.6004 48.3608 12.5657 48.3847C12.5198 48.4163 12.4745 48.4488 12.4293 48.4816C12.3959 48.506 12.3622 48.5302 12.3293 48.5553C12.2832 48.5903 12.2379 48.6263 12.1928 48.6625C12.1624 48.6869 12.1317 48.7107 12.1019 48.7356C12.0511 48.7778 12.0016 48.8214 11.9522 48.8651C11.9293 48.8854 11.9058 48.9051 11.883 48.9257C11.8128 48.9898 11.7439 49.0554 11.6765 49.1225C11.6556 49.1433 11.6357 49.1651 11.6151 49.1862C11.5683 49.2342 11.5217 49.2822 11.4764 49.3315C11.45 49.3602 11.4247 49.3899 11.3989 49.4191C11.3607 49.4623 11.3226 49.5056 11.2856 49.5499C11.2589 49.5817 11.2328 49.6143 11.2068 49.6468C11.1721 49.6897 11.138 49.7331 11.1044 49.777C11.0455 49.8544 10.9883 49.9332 10.9328 50.0132C10.9085 50.0482 10.8845 50.0835 10.8608 50.1189C10.83 50.1653 10.8002 50.2123 10.7705 50.2594C10.7485 50.2946 10.7263 50.3295 10.705 50.3651C10.6746 50.4156 10.6456 50.467 10.6167 50.5183C10.5979 50.5517 10.5785 50.5847 10.5602 50.6185C10.5265 50.6817 10.4937 50.7454 10.4621 50.8097C10.4506 50.8327 10.4384 50.8552 10.4273 50.8784C10.3855 50.9651 10.3457 51.0529 10.3079 51.1417C10.295 51.172 10.2835 51.2028 10.271 51.2333C10.2464 51.2936 10.2219 51.354 10.1991 51.4151C10.1852 51.4525 10.1725 51.4904 10.1593 51.5281C10.1398 51.5835 10.1206 51.639 10.1026 51.695C10.0897 51.7352 10.0778 51.7757 10.0657 51.8163C10.0494 51.871 10.0335 51.9258 10.0186 51.9811C9.99255 52.0781 9.96889 52.1757 9.94769 52.2739C9.93855 52.3161 9.9294 52.3581 9.92107 52.4007C9.91732 52.4199 9.91263 52.4389 9.90899 52.4581H4.68243C3.93231 52.4581 3.3221 51.8484 3.3221 51.0987V45.0004C3.32053 44.2451 3.5735 43.5113 4.04025 42.9171C4.50699 42.323 5.16033 41.9032 5.89498 41.7254C6.56336 41.5621 7.13744 41.376 7.60621 41.1705H50.2012C50.8488 41.1705 51.374 40.6458 51.374 39.9986C51.374 39.3515 50.8488 38.8267 50.2012 38.8267H24.9947V17.6365C24.9947 16.2133 26.1536 15.0552 27.578 15.0552H56.0475C58.2953 15.0552 58.6308 18.2034 58.6308 20.08V50.5567C58.6308 52.2118 57.4382 52.4588 56.7273 52.4588Z" fill="#F1CDB3"/>
<path d="M51.4768 24.8147C51.4769 23.2763 50.3954 21.9863 48.9525 21.6615C48.9603 21.5806 48.9664 21.4992 48.9687 21.4169C48.9956 20.4633 48.6391 19.5567 47.9651 18.864C47.2796 18.1596 46.3222 17.7557 45.3382 17.7557C44.1492 17.7557 43.0903 18.3338 42.4273 19.2239C41.7648 18.3338 40.705 17.7557 39.5133 17.7557C38.5381 17.7557 37.5873 18.1544 36.9049 18.8498C36.2271 19.5402 35.864 20.4483 35.8826 21.4064C35.8842 21.4923 35.8901 21.5773 35.8977 21.6618C34.4554 21.987 33.3747 23.2766 33.3747 24.8147C33.3747 26.1163 34.1489 27.2399 35.261 27.7519C34.4776 28.7206 34.0204 29.9464 34.0204 31.2423C34.0204 34.3028 36.5122 36.7927 39.5751 36.7927C40.5839 36.7927 41.5689 36.5172 42.4257 36.0051C43.2872 36.5202 44.2723 36.7923 45.2763 36.7927C48.3392 36.7927 50.831 34.3028 50.831 31.2423C50.831 29.9462 50.3739 28.7206 49.5904 27.7519C50.7026 27.2399 51.4768 26.1163 51.4768 24.8147ZM45.3382 20.0996C45.6925 20.0996 46.037 20.2448 46.2834 20.4979C46.512 20.7328 46.6329 21.0357 46.6241 21.3508C46.6038 22.0692 46.0209 22.6602 45.3246 22.6682C45.138 22.668 44.9536 22.6279 44.7838 22.5505C44.7629 22.5408 44.7422 22.5304 44.7211 22.5209C44.6143 22.4646 44.5164 22.3927 44.4307 22.3077C44.1857 22.0648 44.0516 21.7384 44.053 21.3885C44.0558 20.6778 44.6324 20.0996 45.3382 20.0996ZM38.5793 20.491C38.7008 20.3665 38.846 20.2677 39.0065 20.2005C39.1669 20.1332 39.3392 20.0988 39.5132 20.0994C40.2211 20.0994 40.7976 20.6762 40.7985 21.3851C40.7993 21.5579 40.7655 21.7291 40.699 21.8885C40.6324 22.048 40.5345 22.1925 40.4111 22.3135C40.3273 22.3959 40.2321 22.466 40.1286 22.5217C40.0902 22.5391 40.0528 22.5577 40.0149 22.5758C39.862 22.6389 39.6979 22.6704 39.5325 22.6683C38.8266 22.6567 38.2413 22.0704 38.2276 21.3613C38.2212 21.0374 38.3463 20.7285 38.5793 20.491ZM35.7202 24.8148C35.7201 24.3245 36.1193 23.9257 36.6098 23.9257C37.1005 23.9257 37.4996 24.3245 37.4996 24.8148C37.4996 24.9155 37.482 25.0118 37.4511 25.1022C37.4217 25.1611 37.3935 25.2207 37.3663 25.2808C37.2093 25.5341 36.9294 25.7038 36.6099 25.7038C36.1193 25.7038 35.7202 25.305 35.7202 24.8148ZM45.2763 34.4492C44.5107 34.4489 43.7704 34.175 43.1892 33.6769C42.9767 33.4945 42.7058 33.3943 42.4257 33.3946C42.1456 33.3944 41.8747 33.4946 41.6622 33.6769C41.081 34.175 40.3407 34.4489 39.5751 34.4492C37.8056 34.4492 36.366 33.0107 36.366 31.2426C36.366 29.9023 37.2117 28.6919 38.4703 28.2307C38.6768 28.1551 38.8578 28.023 38.9927 27.8495C39.1277 27.676 39.211 27.4681 39.2334 27.2495C39.2662 26.9273 39.3477 26.6118 39.475 26.3139C39.5167 26.2346 39.5559 26.1537 39.5911 26.0707C39.9022 25.4851 40.388 25.0108 40.9812 24.7136C41.0322 24.6912 41.0826 24.6676 41.1326 24.6428C41.5404 24.4648 41.9807 24.3731 42.4257 24.3737C42.8842 24.3737 43.3208 24.4692 43.7164 24.6417C43.7663 24.6665 43.8168 24.6899 43.8678 24.7123C44.462 25.0094 44.9488 25.4843 45.2604 26.0707C45.2955 26.1537 45.3347 26.2346 45.3765 26.3139C45.5037 26.6118 45.5852 26.9273 45.6181 27.2495C45.6404 27.4681 45.7238 27.676 45.8587 27.8495C45.9936 28.023 46.1746 28.1551 46.3811 28.2307C47.6397 28.692 48.4854 29.9023 48.4854 31.2426C48.4854 33.0106 47.0458 34.4492 45.2763 34.4492ZM48.2416 25.7038C47.9221 25.7038 47.6422 25.5341 47.4853 25.2808C47.458 25.2208 47.4298 25.1612 47.4005 25.1022C47.3685 25.0097 47.3521 24.9126 47.3519 24.8148C47.3519 24.3245 47.751 23.9257 48.2417 23.9257C48.7323 23.9257 49.1314 24.3245 49.1314 24.8148C49.1313 25.3049 48.7322 25.7038 48.2416 25.7038Z" fill="#F1CDB3"/>
<path d="M56.0625 39.7758C56.0475 39.7007 56.0252 39.6273 55.9958 39.5566C55.9666 39.4857 55.9305 39.4178 55.8879 39.3539C55.8457 39.2897 55.7969 39.23 55.7425 39.1758C55.6882 39.1214 55.6285 39.0727 55.5642 39.0305C55.436 38.9457 55.2927 38.8864 55.142 38.8559C54.9911 38.8254 54.8355 38.8254 54.6846 38.8559C54.6096 38.8712 54.5357 38.8934 54.4641 38.9227C54.3938 38.952 54.3257 38.9884 54.2624 39.0305C54.1979 39.0727 54.1381 39.1219 54.0841 39.1758C54.0301 39.2297 53.9808 39.2895 53.9375 39.3539C53.8953 39.4172 53.8588 39.4852 53.8308 39.5566C53.8015 39.627 53.778 39.7008 53.764 39.7758C53.7487 39.8508 53.7405 39.9281 53.7405 40.0043C53.7405 40.0803 53.7487 40.1578 53.764 40.234C53.778 40.3078 53.8015 40.3816 53.8308 40.4531C53.8601 40.5234 53.8965 40.5914 53.9387 40.6547C53.9808 40.7191 54.0301 40.7789 54.0841 40.8328C54.1381 40.8867 54.1979 40.9359 54.2624 40.9793C54.3257 41.0215 54.3938 41.0566 54.4641 41.0859C54.5357 41.1152 54.6096 41.1387 54.6846 41.1527C54.7598 41.168 54.8372 41.1762 54.9133 41.1762C54.9895 41.1762 55.0671 41.168 55.142 41.1527C55.2171 41.1387 55.2909 41.1152 55.3613 41.0859C55.4329 41.0566 55.5009 41.0215 55.5642 40.9793C55.6288 40.9359 55.6886 40.8867 55.7425 40.8328C55.7964 40.7789 55.8457 40.7191 55.8879 40.6547C55.93 40.5914 55.9665 40.5234 55.9958 40.4531C56.0251 40.3816 56.0473 40.3078 56.0625 40.234C56.0779 40.1578 56.086 40.0803 56.086 40.0043C56.086 39.9281 56.0779 39.8508 56.0625 39.7758Z" fill="#F1CDB3"/>
<path d="M42.4257 0C41.7781 0 41.2529 0.524648 41.2529 1.17188V3.13359C41.2529 3.78082 41.7781 4.30547 42.4257 4.30547C43.0734 4.30547 43.5985 3.7807 43.5985 3.13359V1.17188C43.5985 0.524648 43.0734 0 42.4257 0Z" fill="#F1CDB3"/>
<path d="M37.4849 4.55659L35.8479 3.27234C35.7267 3.1773 35.5881 3.10703 35.4397 3.06555C35.2914 3.02407 35.1364 3.01218 34.9835 3.03057C34.8306 3.04896 34.6828 3.09727 34.5485 3.17273C34.4143 3.24819 34.2963 3.34934 34.2012 3.47038C33.8012 3.97944 33.89 4.71609 34.3994 5.11569L36.0364 6.39995C36.2425 6.56221 36.4974 6.65035 36.7599 6.65015C36.9377 6.65039 37.1132 6.61017 37.2732 6.53253C37.4332 6.45488 37.5733 6.34186 37.6831 6.20202C38.0831 5.69284 37.9943 4.9562 37.4849 4.55659Z" fill="#F1CDB3"/>
<path d="M50.6503 3.47021C50.2504 2.96115 49.5133 2.87244 49.0036 3.27216L47.3666 4.55642C46.8571 4.95603 46.7684 5.69267 47.1684 6.20185C47.2781 6.34177 47.4182 6.45487 47.5782 6.53254C47.7382 6.61021 47.9138 6.65042 48.0916 6.6501C48.3541 6.65028 48.6089 6.56214 48.8151 6.3999L50.4521 5.11564C50.9616 4.71603 51.0504 3.97939 50.6503 3.47021Z" fill="#F1CDB3"/>
</svg>
