<svg width="60" height="60" viewBox="0 0 60 60" fill="none" xmlns="http://www.w3.org/2000/svg">
<path d="M54.3108 35.893C51.0359 34.6582 46.7048 33.9782 42.1158 33.9782C41.8289 33.9782 41.5431 33.9808 41.2586 33.9861C36.9894 34.0653 32.991 34.7353 29.9207 35.893C29.428 36.0777 28.9424 36.2848 28.4651 36.5137V15.7676C28.4651 7.07335 22.0805 0 14.2325 0C6.38461 0 0 7.07335 0 15.7676V44.2324C0 52.9266 6.38461 60 14.2325 60C16.722 60 19.1722 59.2771 21.3188 57.9095C22.6721 57.0472 23.8881 55.9397 24.9168 54.6458C25.6645 55.8095 27.1451 57.0387 29.9208 58.0852C33.1957 59.32 37.5266 60 42.1157 60C46.7047 60 51.0357 59.32 54.3107 58.0852C59.0129 56.3123 60 54.0152 60 52.4005V41.5777C60 39.9629 59.0129 37.6659 54.3108 35.893ZM26.5754 41.5777C26.5759 41.5294 26.5798 41.4812 26.5871 41.4336L26.5891 41.4207C26.6289 41.1861 26.7563 40.9136 26.9907 40.6183L26.9952 40.6128C27.0307 40.5683 27.0695 40.5231 27.1099 40.4775C27.137 40.4474 27.1641 40.4172 27.193 40.3871L27.2271 40.3517C27.4235 40.1512 27.6601 39.9497 27.9332 39.7526C27.9379 39.7492 27.9418 39.7451 27.9464 39.7417C28.5871 39.2807 29.478 38.8027 30.6759 38.351C33.7141 37.2055 37.7769 36.5746 42.1158 36.5746C46.0691 36.5747 49.7904 37.0998 52.719 38.0594L27.6397 43.1794C26.8868 42.5653 26.5767 41.9963 26.5754 41.5804V41.5777ZM26.1213 37.9888C25.2179 38.7555 24.7144 39.5346 24.4591 40.2575C24.3731 40.5005 24.3108 40.753 24.2733 41.0107C24.2561 41.1279 24.2443 41.2461 24.2379 41.3645L24.2359 41.398C24.2331 41.4586 24.2313 41.5186 24.2313 41.5776V51.3612C22.0289 55.1517 18.315 57.4035 14.2325 57.4035C7.67707 57.4035 2.34375 51.4949 2.34375 44.2324V31.2983H4.6875V38.3089C4.6875 39.026 5.21227 39.6072 5.85938 39.6072C6.50648 39.6072 7.03125 39.026 7.03125 38.3089V31.2983H26.1213V37.9888ZM26.1213 28.7017H7.03125V15.7676C7.03125 11.3685 10.2616 7.78961 14.2325 7.78961C18.2034 7.78961 21.4338 11.3685 21.4338 15.7676C21.4338 16.4846 21.9586 17.0659 22.6057 17.0659C23.2529 17.0659 23.7776 16.4846 23.7776 15.7676C23.7776 9.93682 19.4957 5.19307 14.2325 5.19307C8.96941 5.19307 4.6875 9.93682 4.6875 15.7676V28.7017H2.34375V15.7676C2.34375 8.50509 7.67707 2.59654 14.2325 2.59654C20.788 2.59654 26.1213 8.50509 26.1213 15.7676V28.7017ZM57.6562 52.4005C57.6562 53.1757 56.5823 54.4859 53.5556 55.6272C50.5174 56.7726 46.4546 57.4036 42.1158 57.4036C37.7769 57.4036 33.7141 56.7728 30.6759 55.6272C27.6492 54.486 26.5753 53.1758 26.5753 52.4005V51.7354L26.5754 51.7335V45.5253C27.3962 46.1303 28.4844 46.7209 29.9208 47.2624C33.1957 48.4972 37.5267 49.1772 42.1158 49.1772C46.7048 49.1772 51.0359 48.4972 54.3108 47.2624C55.7471 46.7208 56.8355 46.1303 57.6562 45.5252V52.4005ZM53.5556 44.8043C50.5174 45.9498 46.4548 46.5807 42.1158 46.5807C38.1056 46.5807 34.3334 46.0408 31.386 45.0549L56.525 39.9227C57.3278 40.5584 57.6562 41.1497 57.6562 41.5777C57.6562 42.3529 56.5823 43.6631 53.5556 44.8043Z" fill="#F1CDB3"/>
<path d="M6.68777 42.5439C6.63386 42.4842 6.57421 42.4297 6.50976 42.3829C6.44592 42.3358 6.37801 42.2957 6.30702 42.2635C6.23671 42.231 6.163 42.2064 6.088 42.1895C5.93718 42.1557 5.78179 42.1557 5.63097 42.1895C5.55597 42.2064 5.48214 42.231 5.41066 42.2635C5.34023 42.2959 5.27238 42.3362 5.2091 42.3829C5.14452 42.4297 5.08476 42.4842 5.03085 42.5439C4.97695 42.6036 4.92773 42.6698 4.88554 42.7412C4.84218 42.8114 4.80702 42.8867 4.77773 42.9658C4.74843 43.0437 4.72499 43.1255 4.71105 43.2086C4.6957 43.2917 4.68761 43.3774 4.68761 43.4618C4.68761 43.5475 4.6957 43.6319 4.71105 43.7162C4.72499 43.7993 4.74843 43.8811 4.77773 43.959C4.80702 44.0369 4.84218 44.1122 4.88554 44.1836C4.92773 44.2537 4.97695 44.3199 5.03085 44.381C5.19533 44.5615 5.40397 44.6848 5.63097 44.7354C5.70597 44.7523 5.78331 44.7601 5.85949 44.7601C6.01311 44.7605 6.16526 44.727 6.30702 44.6614C6.37801 44.6291 6.44592 44.5891 6.50976 44.542C6.57421 44.4939 6.63398 44.4407 6.68788 44.381C6.74191 44.3199 6.79113 44.2537 6.8332 44.1836C6.87538 44.1122 6.91171 44.0369 6.94101 43.959C6.97031 43.8811 6.99374 43.7993 7.00898 43.7162C7.02421 43.6319 7.03124 43.5475 7.03124 43.4618C7.03124 43.1203 6.90585 42.7854 6.68777 42.5439Z" fill="#F1CDB3"/>
</svg>
